<?xml version="1.0" encoding="UTF-8"?>
<svg id="_Слой_2" data-name="Слой 2" xmlns="http://www.w3.org/2000/svg" viewBox="0 0 433.13 399.04">
  <defs>
    <style>
      .cls-1 {
        fill: #091d2a;
      }

      .cls-2 {
        fill: #535f67;
      }

      .cls-3 {
        fill: #656e71;
      }

      .cls-4 {
        fill: #e3e3dd;
      }

      .cls-5 {
        fill: #c74539;
      }

      .cls-6 {
        fill: #969b9a;
        stroke: #081e2b;
      }

      .cls-6, .cls-7 {
        stroke-width: 4.06px;
      }

      .cls-6, .cls-7, .cls-8, .cls-9, .cls-10, .cls-11, .cls-12 {
        stroke-linejoin: round;
      }

      .cls-6, .cls-7, .cls-9, .cls-10, .cls-11, .cls-12 {
        stroke-linecap: round;
      }

      .cls-13 {
        fill: #32434d;
      }

      .cls-14 {
        fill: #3a4952;
      }

      .cls-15 {
        fill: #646e73;
      }

      .cls-16 {
        fill: #081420;
      }

      .cls-17 {
        fill: #c2c4c1;
      }

      .cls-18 {
        fill: #b6b7b3;
      }

      .cls-19 {
        fill: #374550;
      }

      .cls-20 {
        fill: #6a7477;
      }

      .cls-21 {
        fill: #3e484e;
      }

      .cls-22 {
        fill: #293943;
      }

      .cls-23 {
        fill: #c34439;
      }

      .cls-24 {
        fill: #424f58;
      }

      .cls-25 {
        fill: #17222f;
      }

      .cls-26 {
        fill: #394a54;
      }

      .cls-27 {
        fill: #293741;
      }

      .cls-28 {
        fill: #eaeae4;
      }

      .cls-29 {
        fill: #61696e;
      }

      .cls-30 {
        fill: #545f67;
      }

      .cls-7, .cls-8, .cls-9, .cls-10, .cls-11, .cls-12 {
        fill: none;
      }

      .cls-7, .cls-9, .cls-10, .cls-11, .cls-12 {
        stroke: #091f2c;
      }

      .cls-31 {
        fill: #435059;
      }

      .cls-32 {
        fill: #5d696f;
      }

      .cls-33 {
        fill: #6d777a;
      }

      .cls-34 {
        fill: #d5d6d2;
      }

      .cls-8 {
        stroke: #555f65;
        stroke-linecap: square;
        stroke-width: 6.77px;
      }

      .cls-9 {
        stroke-width: 14.23px;
      }

      .cls-35 {
        fill: #3a444c;
      }

      .cls-36 {
        fill: #283743;
      }

      .cls-37 {
        fill: #c4c6c3;
      }

      .cls-10 {
        stroke-width: 6.1px;
      }

      .cls-38 {
        fill: #3f4b56;
      }

      .cls-11 {
        stroke-width: 8.13px;
      }

      .cls-39 {
        fill: #e9eae6;
      }

      .cls-40 {
        fill: #b8bcb7;
      }

      .cls-41 {
        fill: #041c28;
      }

      .cls-42 {
        fill: #546068;
      }

      .cls-12 {
        stroke-width: 8.81px;
      }

      .cls-43 {
        fill: #697174;
      }

      .cls-44 {
        fill: #fafcfc;
      }

      .cls-45 {
        fill: #556066;
      }

      .cls-46 {
        fill: #5c686e;
      }

      .cls-47 {
        fill: #697376;
      }

      .cls-48 {
        fill: #243641;
      }

      .cls-49 {
        fill: #c4c7c3;
      }

      .cls-50 {
        fill: #6f2727;
      }

      .cls-51 {
        fill: #ebebe5;
      }

      .cls-52 {
        fill: #c8c9c5;
      }

      .cls-53 {
        fill: #626c71;
      }

      .cls-54 {
        fill: #c34239;
      }

      .cls-55 {
        fill: #3b4952;
      }

      .cls-56 {
        fill: #263641;
      }

      .cls-57 {
        fill: #384651;
      }

      .cls-58 {
        fill: #949895;
      }

      .cls-59 {
        fill: #3a4953;
      }

      .cls-60 {
        fill: #afb2ad;
      }

      .cls-61 {
        fill: #47535c;
      }

      .cls-62 {
        fill: #515d65;
      }

      .cls-63 {
        fill: #4a575e;
      }

      .cls-64 {
        fill: #051d29;
      }

      .cls-65 {
        fill: #5a686e;
      }

      .cls-66 {
        fill: #eaebe7;
      }

      .cls-67 {
        fill: #c3c4bf;
      }

      .cls-68 {
        fill: #737d80;
      }

      .cls-69 {
        fill: #071d28;
      }

      .cls-70 {
        fill: #fdfdfd;
      }
    </style>
  </defs>
  <g id="_Слой_1-2" data-name="Слой 1">
    <g id="_Генеративный_объект" data-name="Генеративный объект">
      <g>
        <path class="cls-54" d="M76.9,347.09l86.53-13.11,8.75-1.37.52.08c5.25,5.09,3.26,9.78,20.12,9.67,15.38-.1,18.96,2.2,25.9-9.7.45-.77.57-1.7.85-2.55,1.42.42,4.14,1.06,5.58.26,2.44-1.36,3.58-4.01,5.46-5.63l-.25-.74.74-.61-.14-28.65c-.02-4.39-3.65-7.76-7.4-8.52-.52-.11-1.07-.3-1.6-.32.14-1.02.49-2.05.4-3.07l-.38-4.22c1.34-1,2.66-2.14,3.86-3.3,9.23-8.87,17.09-19.28,26.99-27.81,4.75-3.16,11.4-2.02,16.21-4.05,5.65-2.39,11.11-.55,17.02-.73,13.19-.4,25.95-3.46,38.75-4.77,8.8-.9,17.46-2.76,26.16-4.32l1.39-.25c.22-.04.45-.02.68-.03,14.26-1.13,28.54-11.82,29.85-26.78l3.85-43.94.23-9.46c0-.26,0-.52.05-.78,1.42-.46,3-.91,4.31-1.66,4.18-2.42,8.88-4.04,11.7-8.11.17-.24.39-.43.54-.68,2.04.37,2.11,2.08,2.24,4.11l1.39,3.36,4.89,21.42c2.2,9.63,2.24,31.76,1.4,42.75-2.7,35.21-15.21,68.95-36.85,98.43-31.7,43.18-90.95,80.76-139.91,85.5l-8.36.81c-2.08.2-4.63.72-6.49.72h-26.18c-2.42.01-5.24-.67-7.64-.9-40.91-3.85-78.89-20.63-111.35-45.68-.04-1.97-.29-3.75.19-5.36Z"/>
        <path class="cls-5" d="M301.66,27.74l-5.61,2.02c-.25.09-.51.14-.74.27-2.32,1.35-4.91,1.26-7.87,2.08l-137.92,38.09-96.83,25.7c-6.88,1.83-12.03,5.87-15.19,11.51-1.4,2.5-3.02,5.01-3.04,8.59l-.27,43.49c0,.24,0,.31,0,0,1.9,2.74,6.14,8.61,10,6.97,0,.24,0,.31,0,0l.68-.16-.27.76c3.8,7.48,3.96,1.49,4.03,11.48l.11,16.61c.04,5.83-.28,11.26,1.11,16.58,4.4,16.88,21.83,22.89,36.99,26.01.23.05.44.05.68.14.99.37,2.07.43,3.08.36l-.02.8,25.64,4.69,20.76.81.57-.67c.05.24.04.49.14.7s.31.34.46.51l3.25,3.59,22.72,25.11,1.39,1.54.46.51c0,.24,0,.31,0,0,0,.24,0,.31,0,0l-1.46,8.82c0,.24,0,.31,0,0l-.45.55-3.63,4.39c-.16.19-.38.34-.45.55,0,.24,0,.31,0,0,0,.24,0,.31,0,0l-.68.06-8.87.75-80.36,6.79c-.22-1.55-.14-3.15-.15-4.71l-.22-23.98c-.05-5.43-2.97-9.68-7.24-12.06-6.43-3.59-27.41-5.75-38.68-9.24-4.57-1.41-8.88-.69-12.8,1.92-6.68-26.43-9.78-48.5-5.71-76.71C14.56,108.34,56.32,47.62,118.54,19.62c9.84-4.43,22.75-9.87,33.27-12.59l12.24-3.16c2.56-.66,5.15-.86,7.81-1.27,45.29-7.06,88.03.42,129.64,20.2.14,1.9.27,3.34.15,4.93Z"/>
        <path class="cls-34" d="M403.03,142.62c-2.83,4.07-7.52,5.69-11.7,8.11-1.31.76-2.89,1.2-4.31,1.66-.04.26-.04.52-.05.78,0-.26,0-.52.05-.78.45-3,.61-6.14,1.41-9.47l11.19-46.38.16-.67c0,.31,0,.24,0,0,.03-.23,0-.46,0-.69v-1.39c1.84-2.52,9.17-14.68,7.79-18.15l-1.28-3.22c-1.34-3.38-4.87-3.62-6.91-4.33l-64.89-22.82c-12.2-4.29-25.72-2.15-33.12,9.2-2.18,3.35-5.46,6.01-7.05,9.71l-5.77,13.41c-6.69,15.54-20.71,33.94-37.46,41.54-3.92,1.78-7.64,2.54-12.42,3.6l-165.65,36.89-28.17,6.66-.68.16c0,.31,0,.24,0,0-3.85,1.65-8.1-4.23-10-6.97,0,.31,0,.24,0,0,.22-.09.45-.17.65-.29,3.81-2.16,7.69-2.83,12.52-3.92l198.83-45.05c13.66-3.09,32.33-34.61,36.5-45.8l7.2-19.34,6.19-11.36c.41-.76.79-1.92,1.3-2.76-.2-.44-1.85-.64-1.35-1.2-.25.09-.51.14-.74.27.22-.13.49-.18.74-.27l5.61-2.02c7.46-2.68,14.76-2.92,22.68-.14l85.82,30.12c15.37,5.39,22.66,20.59,16.99,35.94-6.26,16.95-14.19,33.13-23.58,48.28-.15.24-.38.44-.54.68Z"/>
        <path class="cls-30" d="M163.69,320.98l-.46.38c.36,2.46-.01,4.95.14,7.42.1,1.75-.33,3.47.07,5.19l-86.53,13.11c-.92.14-2.06-.04-2.99-.09l-14.49-.73c-5.92-.3-14.25-3.42-14.27-9.86.8-.19,1.58-.44,2.39-.55l8.12-1.08,105-14,.42-.87c0,.18.12.35.19.53.4,1.01,1.62.35,2.42.54Z"/>
        <path class="cls-63" d="M17.67,299.33c0,.23,0,.46,0,.69l.05,22.04.32,42.75-2.41.88-10.89,2.57-.69.16c0,.13,0,0,0,0l.13-7.51c.27,2.02,10.02-4.42,6.55-4.69-2.18-.17-.25,3.22-6.51,2.64l.97-56.7c1.83.14,3.95.87,6.17-.11.23-.81-.59-1.44-.11-1.89.15-.14,6.49-.93,6.41-.13,0-.23,0-.46,0-.69Z"/>
        <path class="cls-26" d="M19.32,368.2l2.29,6.09c1,0,2.11-.3,2.98.05,7.49,2.97,15.65,3.56,23.7,5.79,4.67,1.29,8.54,4.39,12.78,6.08l-.15.82c-3.8.46-8.01,1.81-12.15,1.25-10-1.35-19.87-2.87-29.69-5-7.84-1.71-12.83-7.89-15.02-14.85h0s0,.13,0,0l.69-.16,10.89-2.57,2.41-.88c0,.91.92,1.8,1.02,2.71.03.24.17.45.25.68Z"/>
        <path class="cls-13" d="M45.13,332.2v4.21c.04,6.44,8.36,9.56,14.29,9.86l14.49.73c.19,1.95-.41,3.82-1.83,5.19l-.17.76c0,.31,0,.24,0,0l-.68.4c-2.56,2.24-5.68,2.27-9.18,1.57-11.34-2.24-26.52-3.58-27.4-17.21.74.37,3.06-.15,3.56-1.08.38-.7.46-2.14.35-3.06,2.22-.43,4.16-1.94,6.57-1.37Z"/>
        <path class="cls-45" d="M17.72,258.45s-.15,14.15.05,15.73c.03.23,0,.46,0,.69,0-.23.02-.46,0-.69-1.47.43-2.92.67-4.73.56-.28-1.06.3-1.79-.32-2.79-1.02.7-1.21,2.64-2.71,3.22-2.02.77-4.53.25-6.47.07-.25-2.46.56-4.91.62-7.61.1-4.07-.4-7.79,1.1-11.21l3.63.26c-.43.9.19.99.5,1.15.6.32,1.15-1.23,1.58-1.23,1.2.01,2.07,1.5,3.2,2.1,1.32-.95,2.58-.47,3.56-.25Z"/>
        <path class="cls-62" d="M17.83,281.78c.03,4.24-.18,8.47-.17,12.69-8.94-.92-.88,1.63-12.42,1.27.02-2.65.28-5.31-.11-7.94,1.12-.89,2.94.72,3.59-.67,1.63-1.93,2.83-3.83,4.38-5.09,1.41.31,3.31.09,4.73-.26Z"/>
        <path class="cls-20" d="M23.75,247.72c-.36.75-.57,1.65-1.11,2.22-2.5,2.67-5.08,4.81-4.92,8.5-.98-.22-2.23-.69-3.56.25-1.13-.61-2-2.09-3.2-2.1-.43,0-.99,1.55-1.58,1.23-.31-.16-.93-.25-.5-1.15l-3.63-.26c1.29-2.96,3.06-5.03,5.69-6.77,3.92-2.61,8.23-3.34,12.8-1.92Z"/>
        <path class="cls-19" d="M17.78,274.87l.05,6.91c-1.42.35-3.32.57-4.73.26-.05-.44-.54-1.27-1.16-.9-.27.16-1.1.58-1.59.25.06-1.42,1.68-1.82,1.94-3.31-6.89,4.66-.37,1.51-8.13,3.1-.02-.25-.06-.49-.08-.74l-.54-5.21c1.95.18,4.45.71,6.47-.07,1.51-.58,1.69-2.51,2.71-3.22.62,1,.04,1.72.32,2.79,1.81.1,3.26-.13,4.73-.56.03.23,0,.46,0,.69Z"/>
        <path class="cls-55" d="M17.66,294.47v4.86c.01.23.01.46.02.69.08-.8-6.26-.01-6.41.13-.48.45.33,1.08.11,1.89-2.22.98-4.34.25-6.17.11l.04-6.42c11.55.36,3.48-2.19,12.42-1.27Z"/>
        <path class="cls-15" d="M13.1,282.04c-1.55,1.26-2.76,3.16-4.38,5.09-.65,1.39-2.47-.21-3.59.67-.33-2.2-.76-4.39-.97-6.61-.02-.25-.06-.49-.08-.74.03.25.06.49.08.74,7.75-1.59,1.24,1.55,8.13-3.1-.26,1.49-1.88,1.89-1.94,3.31.48.33,1.31-.09,1.59-.25.62-.37,1.12.46,1.16.9Z"/>
        <path class="cls-25" d="M4.19,360.91l.04-2.05c6.26.58,4.33-2.82,6.51-2.64,3.48.27-6.27,6.72-6.55,4.69Z"/>
        <path class="cls-17" d="M399.78,95.87c0,.24,0,.31,0,0l-.16.67-11.19,46.38c-.8,3.33-.96,6.48-1.41,9.47-.04.26-.04.52-.05.78l-.23,9.46-3.85,43.94c-1.31,14.96-15.59,25.66-29.85,26.78-.23.02-.46,0-.68.03l-1.39.25-.65-.74-23.03-5.62-23.76-5.21c-3.4-.75-6.8-1.47-10.17-2.36l-.68-.18-20.15-5.35s-.08,0-.13-.01c-.15-.03-.29-.12-.44-.17-.75-.29-1.5-.6-2.18-1.04-9.8-6.31-17.76-15.99-19.18-27.65l-13.43,1.67c-3.11.39-6.13,1.18-9.02,1.27l-.21-2.74-1.02-13.02c-.65-.06-1.32-.26-1.94-.16l-155.78,26.08c-.67.11-1.37.04-2.05.05.06,3.1.24,6.12.68,9.21.03.22.01.45,0,.68s-.05.46,0,.68c-4.98.57-13.63,1.67-18.02,2.71-1.39-5.32-1.07-10.75-1.11-16.58l-.11-16.61c7.45.96,10.25-1.41,18.14-1.78l-.05-2.08,53.96-10.68,8.46-1.49,71.45-14.03,4.98-.87,18.08-3.59c1.04-.21,2.21.39,2.82.22,1.6-.46,4.57-2.03,6.65-1.86,1.93.16,14.57-3.26,16.96-2.46l.07-13.84c1.12-.76.81-1.8.92-2.39.27-1.46.43-3.1.03-4.54,16.74-7.6,30.77-26.01,37.46-41.54.37.71,1.45.46,2.31-.09l36.41,10.78,1.68.17c.39.04.96.45.89,1.04-.6-.35-1.6-.51-2.77.56-2.89-2.44-6.11-.87-9.09-.51-23.37,2.78-37.22,24.68-40.31,47.09-.45,3.23.78,6.7-.04,9.97-.74,2.95,1.74,12.57,2.48,15.38,5.55,21.01,20.9,37.67,44.36,39.71,21.34,1.86,39.57-13.19,44.56-34.01,6.79-28.32-.43-58.07-26.65-74-1.31-4.63,14.45,6.17,15.75,7.29,15.07,13.02,18.1,28.57,20.52,32.09.78,1.14,1.85.96,3.41.65.1-3.14-.08-6.11-.19-9.27l-.63-17.25c-.08-2.21-1.06-3.95-1.66-5.8-2.43-7.4-7.43-10.74-14.17-13.2l-26.28-9.58c-1.63-.59-3.33-1.37-5.23-2.17-1.41-.59-3.72-.68-5.31-1.29l-15.78-6.01c-2.42-.92-16.58-6.1-18.48-4.96,1.59-3.7,4.86-6.36,7.05-9.71l4.58,2.87c1.82,1.14,3.65,2.83,6.11,3.65l58.14,19.38c3.3,1.1,6.4,2.26,9.35,3.94l19.64,11.23.6.35Z"/>
        <path class="cls-32" d="M269.04,243.46c-4.8,2.03-11.46.89-16.21,4.05-9.91,8.52-17.76,18.93-26.99,27.81-1.21,1.16-2.53,2.3-3.86,3.3l.38,4.22c.09,1.02-.26,2.05-.4,3.07l-44.35-1.01-13.14-.27h0l1.46-8.82c0,.31,0,.24,0,0,0,.24,0,.31,0,0,.27-.06.54-.14.81-.18,3.54-.55,7.26-1.95,11.21-2.04,4.97-.1,8.8-1.88,11.82-5.65l.54-.68c3.52-4.4,6.35-9.42,10.25-13.51.48-.38,1.53.93,1.75,1.51.2.54-.67.91-1.07,1.66.71.3,1.31-.24,1.64.17.2.25.61.64.67,1.41l.76,10.5c.14,1.91-.01,3.45.69,5.11l.54-5.4c.42-4.18.12-11.17,1.09-10.66,1.15.8.32,2.41,1.08,3.83l1.19-10.51.82,7.75c.53-.7.54-1.49.34-1.7-.54-.56,1.05-1.44,1.19-.86.67,2.75-.83,5.61.71,8.2,1.17-4.36-.93-8.01.78-12.29,1.83,2.89-.52,5.85.76,8.75-.15,1.31.71,1.66.76-.06,2.82.07,5.34-.56,7.89,0l3.14-7.95c-.58,1.45,3.46-9.1,1.21-5.97.28-.04.57,0,.85-.04-.28.04-.57,0-.85.04-4.37.67-8.18-1.55-12.32-2.71-1.82-.51-3.63-1.1-5.51-1.42,2.46-3.86,4.35-8.02,6.33-12.14l2.15-4.46.7.14c8.2,1.66,16.41,2.25,25.17,2.1l20.31-.35,3.4,8.37c.87,2.15,2.11,4.38,2.28,6.66Z"/>
        <path class="cls-27" d="M269.79,212.94c.68.44,1.43.75,2.18,1.04.15.06.29.14.44.17.04,0,.09,0,.13.01l20.15,5.35.68.18c-.84.41-.58,1.18-.32,2.63l-7.41.99c-1.61.22-2.21,1.37-1.94,2.3.45,1.52.9.93,2.34.76l8.28-.96c2.35-.27,5.09.49,7.62-.28,1.01-.68,1.65-.59,1.64-1.13l-.05-1.95,23.76,5.21c.08,1.2-.61,2.23-.68,3.4-2.71.15-5.37-.32-8.31.25,1.66,2.19,3.57,3.53,5.04,5.28l1.47,1.74c-12.8,1.31-25.56,4.37-38.75,4.77-5.91.18-11.38-1.66-17.02.73-.17-2.28-1.41-4.51-2.28-6.66l-3.4-8.37-20.31.35c-8.75.15-16.96-.45-25.17-2.1l-.7-.14-.15-.97-.15-.97c-.17-1.12-.95-2-2.03-2.84l.23-2.8,28.25-3.42.7-.08,16.46-1.86c3.13-.35,6.06-.32,8.85,0l.46-.66Z"/>
        <path class="cls-4" d="M221.96,285.91c.54.01,1.08.21,1.6.32-.53,1.45-1.61,2.95-.29,5.04-2.07.4-1.43,1.21-2.02,2.65-1.41,3.47,1.71-.34-.34,4.82.11-.27.54,9.17.68,7.86-1.86,17.02,2.26,7.1,1.12,15.45-4.47-1.15-9.29-2.46-13.97-2.48.16-.8-.4-2.06-.03-3.12.6-1.7,6.29,1.54,8.91-.36l-.97-23.23c-8.32-3.1-16.55-2.06-24.5-2.28-3.36-.09-7.09-.64-10.51-.13-.81.12-2.42,1.06-3.2.26-.42-.43-1.12-.36-1.05-1.74l.22-4.07,44.35,1.01Z"/>
        <path class="cls-18" d="M230.37,323.99l-7.65-1.96c1.15-8.34-2.98,1.58-1.12-15.45-.14,1.31-.58-8.12-.68-7.86,2.05-5.16-1.07-1.35.34-4.82.59-1.44-.06-2.25,2.02-2.65-1.32-2.09-.24-3.59.29-5.04,3.75.76,7.38,4.13,7.4,8.52l.14,28.65-.74.61Z"/>
        <path class="cls-31" d="M350.97,233.64c-8.69,1.56-17.36,3.42-26.16,4.32l-1.47-1.74c-1.47-1.75-3.38-3.08-5.04-5.28,2.94-.57,5.61-.1,8.31-.25.07-1.17.75-2.21.68-3.4l23.03,5.62.65.74Z"/>
        <path class="cls-52" d="M289.9,45.07l-7.2,19.34c-4.17,11.18-22.84,42.7-36.5,45.8l-198.83,45.05c-4.84,1.1-8.71,1.77-12.52,3.92-.21.12-.43.2-.65.29l.27-43.49c.02-3.57,1.64-6.09,3.04-8.59,1.7.61,3.95-.2,5.66.88.29.31.37,1.2.83,1.53.99.72.98-.26,1.74-.46l20.21-5.22,4.84-1.24c2.37-.61,4.19-1.25,6.27-1.41.34-.03,7.72-2.07,10.48-2.69l6.75-1.51,20.99-5.08,11-2.99c3.25-.88,6.77-1.66,10.27-2.6l60.59-16.27,4.97-1.41c1.4-.4,3.63-1.02,5.3-1.49l25.11-7.08,17.66-5.13c2.89-.84,5.8-1.48,8.92-2.49l4.15-1.35c5.59-1.82,21.65-7.02,26.65-6.33Z"/>
        <path class="cls-65" d="M251.09,119.13c.4,1.44.24,3.08-.03,4.54-.11.59.2,1.63-.92,2.39l-.07,13.84c-2.39-.8-15.03,2.62-16.96,2.46-2.08-.17-5.05,1.4-6.65,1.86-.61.18-1.78-.43-2.82-.22l-18.08,3.59-4.98.87-71.45,14.03-8.46,1.49-53.96,10.68.05,2.08c-7.89.37-10.69,2.73-18.14,1.78-.07-9.99-.23-4.01-4.03-11.48l.27-.76-.68.16.68-.16,28.17-6.66,165.65-36.89c4.78-1.06,8.49-1.82,12.42-3.6Z"/>
        <path class="cls-28" d="M295.32,30.02c.22-.13.49-.18.74-.27-.5.56,1.14.76,1.35,1.2-.52.84-.89,2-1.3,2.76l-6.19,11.36c-5-.7-21.06,4.51-26.65,6.33l-4.15,1.35c-3.12,1.01-6.03,1.65-8.92,2.49l-17.66,5.13-25.11,7.08c-1.67.47-3.91,1.09-5.3,1.49l-4.97,1.41-60.59,16.27c-3.51.94-7.02,1.72-10.27,2.6l-11,2.99-20.99,5.08-6.75,1.51c-2.76.62-10.14,2.66-10.48,2.69-2.08.15-3.9.8-6.27,1.41l-4.84,1.24-20.21,5.22c-.75.2-.75,1.18-1.74.46-.46-.33-.54-1.22-.83-1.53-1.71-1.08-3.96-.27-5.66-.88,3.16-5.64,8.31-9.68,15.19-11.51l96.83-25.7,137.92-38.09c2.97-.82,5.56-.73,7.87-2.08Z"/>
        <path class="cls-40" d="M177.61,284.89l-.22,4.07c-.07,1.37.63,1.3,1.05,1.74.79.8,2.4-.14,3.2-.26,3.42-.51,7.15.04,10.51.13,7.95.22,16.18-.82,24.5,2.28l.97,23.23c-2.62,1.9-8.31-1.34-8.91.36-.37,1.06.18,2.32.03,3.12l-31.16-.14-.36-12.33c-.14-4.57,1.4-9.57-.8-13.5.56-.6.56-1.19.48-1.76-.34-2.24-7.92-.89-9.28-.45-1.94.63-1.62,2.05-1.61,3.06l.2,26.33c-.83.09-1.69.04-2.52.2-.81-.2-2.02.47-2.42-.54-.07-.18-.18-.35-.19-.53l-.37-9.7-.74-19.39-.03-.69c0,.31,0,.24,0,0,.07-.21.3-.36.45-.55l3.63-4.39.45-.55c0,.31,0,.24,0,0h0l13.14.27Z"/>
        <path class="cls-67" d="M215.03,230.98c-1.99,4.12-3.88,8.28-6.33,12.14l-.84,1.33c-2.13,3.35-4.55,6.45-7.28,9.31-3.9,4.08-6.73,9.1-10.25,13.51l-.54.68c-5.1-3.09-17.48.28-25.45-.04l-.25,5.86-22.72-25.11c.78-2.65,6.2,1.01,4.21-2.94l21.99-2.37c.98,1.36-.32,3,1.22,3.74.22-.19.43-.4.68-.54-.25.15-.46.35-.68.54-4.9,4.42-3.85,11.83,1.04,15.31,2.19,1.56,5.63.91,7.1-.21,1.79-1.36,3.11-3.79,3.41-6.02.75-5.6-2.2-10.48-7.49-11.24-.09.97-.88.52-1.35.68,1.06-1.23-.43-2.55.03-4.06,10.02.27,3.49.66,12.45-.46l16.05-2.01c6.17-.77,7.16-1.81,9.62-8.81,1.97.9,3.85-.45,5.38.74Z"/>
        <path class="cls-51" d="M150.39,290.92c-.61,7.12,1.01,2.5.64,7.36-9.01.36-14.81.84-24.59,1.78-3.17.3-6.64-.42-10.15.9-1.5-1.26-3.37.77-5.03.23l-34.36,2.83c-5.99.49-12.15-.29-18.43,1.69-.75.24-1.3-1.01-2.15-.44-.8-2.42.99-5.07-.61-7.31.22-.1.44-.2.66-.31l1.32-.61c.01.24.17.01,0,0s-.01.13,0,0c.22-.1.53.08.8.17,3.76,1.28,7.65.81,11.54.48l80.36-6.79Z"/>
        <path class="cls-66" d="M62.43,256.96c-1.38.78-1.38,2.38-.44,3.84-1.52.88-2.28.66-3.13.45-7.72-1.91-15.43-2.77-23.56-3.85-3.42-.45-8.09-2.04-11.53-.58-2.07,2.37-.87,7.15-.93,10.01l-.24,12.47c-.07,3.75,0,7.66.02,11.53l.18,27.87c-.21,1.74-1.3,1.93-1.63,2.71-.44,1.07-3.08,1.42-3.45.66l-.05-22.04c0-.23,0-.46,0-.69v-4.86c-.02-4.22.18-8.46.15-12.69l-.05-6.91c0-.23.02-.46,0-.69-.21-1.58-.05-15.69-.05-15.73-.17-3.7,2.42-5.84,4.92-8.5.54-.57.74-1.48,1.11-2.22,11.28,3.49,32.25,5.65,38.68,9.24Z"/>
        <path class="cls-61" d="M67.85,209c1.22,5.46,3.64,11.28,8.75,13.73s9.61,5.38,14.32,8.83c1.68,1.23,2.42,3.18,3.72,4.3v.75s-4.1.6-4.1.6l.04.99c-1.01.07-2.08,0-3.08-.36-.24-.09-.44-.09-.68-.14-15.16-3.13-32.58-9.14-36.99-26.01,4.39-1.04,13.04-2.14,18.02-2.71Z"/>
        <polygon class="cls-22" points="134.84 230.72 135.46 233.4 137.52 243.85 136.95 244.52 116.19 243.71 90.55 239.02 90.57 238.22 90.53 237.23 94.62 236.62 134.84 230.72"/>
        <path class="cls-20" d="M190.32,267.26l-.54.68c-3.02,3.77-6.85,5.54-11.82,5.65-3.95.08-7.67,1.48-11.21,2.04-.27.04-.54.12-.81.18,0,.31,0,.24,0,0,0,.31,0,.24,0,0l-.46-.51-1.39-1.54.25-5.86c7.97.32,20.35-3.04,25.45.04l.54-.68Z"/>
        <path class="cls-58" d="M159.94,290.12l.03.69.74,19.39c-2.01.55-4.09.31-6.15.14v-9.89c-1.8.29-1.93-2.02-3.53-2.17.37-4.85-1.25-.23-.64-7.36l8.87-.75.68-.06c0,.31,0,.24,0,0Z"/>
        <path class="cls-56" d="M399.78,95.87l-.6-.35-19.64-11.23c-2.94-1.68-6.05-2.84-9.35-3.94l-58.14-19.38c-2.45-.82-4.29-2.51-6.11-3.65l-4.58-2.87c7.4-11.35,20.92-13.49,33.12-9.2l64.89,22.82c2.04.72,5.57.95,6.91,4.33l1.28,3.22c1.38,3.47-5.95,15.63-7.79,18.15v1.39c0,.23.03.47,0,.69Z"/>
        <path class="cls-53" d="M342.38,93.67c-5.73-2.53-7.29-2.36-12.54-4.19.07-.59-.5-1-.89-1.04l-1.68-.17-36.41-10.78c-.86.56-1.94.8-2.31.09l5.77-13.41c1.9-1.14,16.06,4.04,18.48,4.96l15.78,6.01c1.59.6,3.9.7,5.31,1.29,1.9.8,3.6,1.57,5.23,2.17l26.28,9.58c6.74,2.46,11.74,5.8,14.17,13.2.61,1.84,1.58,3.59,1.66,5.8l.63,17.25c.12,3.16.29,6.13.19,9.27-1.56.31-2.62.49-3.41-.65-2.42-3.52-5.46-19.07-20.52-32.09-1.29-1.12-17.06-11.92-15.75-7.29Z"/>
        <g>
          <path class="cls-3" d="M34.66,337.71c.88,13.63,16.06,14.97,27.4,17.21,3.51.69,6.62.66,9.18-1.57l.68-.4-.11,16.28c-.05,7.85-5.59,12.04-9.45,17.62l-.64-.32c-.21-.11-.42-.23-.64-.32-4.24-1.69-8.1-4.79-12.78-6.08-8.05-2.22-16.21-2.82-23.7-5.79-.87-.35-1.99-.04-2.98-.05l-2.29-6.09c-.09-.23-.23-.44-.25-.68.35.04,3.17.43,3.72-.55.71-13.99-.9-18.54-.07-33.31.12-2.15.85-4.85-.59-6.85,1.89-3.65,4.65-7.72,6.97-11,1.03-1.15,3.18-.07,4.22-.46l.46,7.68c.31,5.14.59,9.97.89,14.67Z"/>
          <path class="cls-41" d="M50.05,371.87c-2.89-1.11-4.97-1.96-6.86-3.5-1.74-1.41.85-9.7,2.75-10.12,3.05-.68,6.54.84,9.81,1.9.43,4.5-1.69,8.65-5.7,11.72Z"/>
        </g>
        <path class="cls-37" d="M151.03,298.28c1.59.15,1.72,2.46,3.53,2.17v9.89c2.06.17,4.13.41,6.15-.14l.37,9.7-.42.87-105,14c-.71-1.43.45-2.92.45-4.41l.03-12.13.24-9.18-.55-3.3c.02-.31.31-.33.5-.46.84-.58,1.4.67,2.15.44,6.29-1.97,12.44-1.2,18.43-1.69l34.36-2.83c1.66.53,3.53-1.49,5.03-.23,3.51-1.32,6.99-.6,10.15-.9,9.77-.94,15.58-1.42,24.59-1.78Z"/>
        <path class="cls-47" d="M56.13,318.23l-.03,12.13c0,1.49-1.16,2.98-.45,4.41l-8.12,1.08c-.81.11-1.59.37-2.39.55v-4.21s-.53-23.48-.53-23.48c3.68-.06,7.35-1.14,10.78-.19-.82,3.85-.16,6.51-.44,9.38.52.25.92.72,1.18.32Z"/>
        <path class="cls-29" d="M57.69,297.06c.17.01.01.24,0,0l-1.32.61c-.22.1-.44.2-.66.31l-10.65,5.04c-.98.46-.45,2.2-.5,2.92-.06.82.05,1.93.06,2.77l.52,23.48c-2.41-.57-4.35.95-6.57,1.37-.52-4.22-1.13-26.22-.58-31.42.31-3.01,2.09-6.74,4.89-7.19-1.38-.84,11.39-3.49,11.44-2.41.13-1.45-.17-2.03,0-2.8,1.58.13,3.37,1.47,3.86,3,.43,1.33-.47,2.92-.47,4.32Z"/>
        <path class="cls-50" d="M227.96,185.49l.21,2.74.91,11.65.05.69-.67.09-147.73,20.73c-1.33.19-3.5-.42-4.14,1.35-5.11-2.45-7.52-8.28-8.75-13.73-.05-.22-.01-.45,0-.68s.03-.46,0-.68c.88.47,1.59.46,2.79.3l73.72-10.24,4.45-.67c1.27-.19,2.97-.91,4.6-.58l3.23-.74c6.75-1.56,15.8-2.27,23.29-3.44l9.48-1.48,9.31-1.37,22.34-3.09c2.28-.32,4.6-2.09,6.9-.84Z"/>
        <path class="cls-23" d="M227.96,185.49c-2.3-1.25-4.62.52-6.9.84l-22.34,3.09-9.31,1.37-9.48,1.48c-7.49,1.17-16.54,1.89-23.29,3.44l-3.23.74c-1.63-.34-3.33.39-4.6.58l-4.45.67-73.72,10.24c-1.2.17-1.91.17-2.79-.3.03.22.01.45,0,.68.01-.23.03-.46,0-.68-.44-3.09-.62-6.11-.68-9.21.68-.01,1.38.06,2.05-.05l155.78-26.08c.62-.1,1.29.1,1.94.16l1.02,13.02Z"/>
        <path class="cls-38" d="M269.79,212.94l-.46.66c-2.78-.33-5.71-.36-8.85,0l-16.46,1.86-.7.08c.17-.6.07-1.28-.19-1.96-.21-.56-1.21-.56-1.58-.92l-12.42-12.1-.05-.69-.91-11.65c2.89-.09,5.91-.88,9.02-1.27l13.43-1.67c1.42,11.66,9.38,21.34,19.18,27.65Z"/>
        <path class="cls-14" d="M303.53,222.06l.05,1.95c.01.54-.63.44-1.64,1.13-2.53.77-5.27.01-7.62.28l-8.28.96c-1.44.17-1.9.76-2.34-.76-.27-.93.33-2.09,1.94-2.3l7.41-.99c-.25-1.45-.52-2.22.32-2.63l-.68-.18.68.18c3.37.89,6.77,1.62,10.17,2.36Z"/>
        <path class="cls-36" d="M206.65,258.05c.66-14.51,4.3-.97,1.21-13.6l.84-1.33c1.87.32,3.68.91,5.51,1.42,4.14,1.16,7.94,3.38,12.32,2.71.28-.04.57,0,.85-.04-.28.04-.57,0-.85.04,2.25-3.13-1.79,7.43-1.21,5.97l-3.14,7.95c-2.55-.55-5.07.08-7.89,0-.05,1.72-.91,1.37-.76.06-1.29-2.9,1.06-5.87-.76-8.75-1.71,4.28.39,7.93-.78,12.29-1.54-2.59-.04-5.45-.71-8.2-.14-.58-1.72.3-1.19.86.2.21.19.99-.34,1.7l-.82-7.75-1.19,10.51c-.76-1.42.08-3.03-1.08-3.83Z"/>
        <path class="cls-57" d="M206.65,258.05c-.97-.5-.67,6.48-1.09,10.66l-.54,5.4c-.7-1.65-.55-3.2-.69-5.11l-.76-10.5c-.06-.78-.47-1.16-.67-1.41-.33-.41-.93.14-1.64-.17.4-.75,1.27-1.13,1.07-1.66-.22-.57-1.28-1.89-1.75-1.51,2.73-2.86,5.15-5.96,7.28-9.31l.84-1.33-.84,1.33c3.09,12.64-.55-.9-1.21,13.6Z"/>
        <path class="cls-2" d="M244.03,215.46l-.7.08-28.25,3.42-80.24,11.77-40.22,5.91v-.75c-1.28-1.12-2.02-3.07-3.71-4.3-4.71-3.45-9.41-6.48-14.32-8.83.63-1.78,2.81-1.17,4.14-1.35l147.73-20.73.67-.09,12.42,12.1c.37.36,1.37.36,1.58.92.26.68.36,1.36.19,1.96l.7-.08Z"/>
        <path class="cls-43" d="M176.43,293.59c2.2,3.93.66,8.93.8,13.5l.36,12.33c-3.84-.02-7.58.93-11.38,1.35l-.2-26.33c3.46-.19,6.95-1.27,10.41-.86Z"/>
        <g>
          <path class="cls-59" d="M177.59,319.42l31.16.14c4.67.02,9.49,1.33,13.97,2.48l7.65,1.96.25.74c-1.89,1.61-3.02,4.27-5.46,5.63-1.44.8-4.16.16-5.58-.26-.28.85-.4,1.78-.85,2.55-6.93,11.9-10.52,9.6-25.9,9.7-16.86.11-14.86-4.57-20.12-9.67l-.52-.08-8.75,1.37c-.4-1.72.04-3.44-.07-5.19-.15-2.47.22-4.96-.14-7.42l.46-.38c.83-.16,1.69-.11,2.52-.2,3.8-.42,7.54-1.37,11.38-1.35Z"/>
          <path class="cls-62" d="M193.46,327.9c1.61-.03,3.25.05,4.85-.09-.44.92.03,1.8-.25,2.78.02-.07-7.99,5.37-9.05,2.61,1.21-.8,2.34.55,2.91-.86l-7.53-.92c1.12-1.11.14-1.08.04-1.38-.21-.66.07-2.16.72-2l8.31-.15Z"/>
        </g>
        <path class="cls-21" d="M176.43,293.59c-3.46-.42-6.95.67-10.41.86,0-1.01-.33-2.43,1.61-3.06,1.36-.44,8.94-1.79,9.28.45.09.57.08,1.16-.48,1.76Z"/>
        <g>
          <path class="cls-33" d="M215.08,218.95l-.23,2.8c1.07.83,1.85,1.72,2.03,2.84l.15.97.15.97-2.15,4.46c-1.53-1.2-3.41.15-5.38-.74-2.46,7.01-3.45,8.04-9.62,8.81l-16.05,2.01c-8.96,1.12-2.43.73-12.45.46-.47,1.52,1.03,2.83-.03,4.06-1.16.37-1.63.71-2.03.95-.25.15-.46.35-.68.54-1.54-.74-.24-2.38-1.22-3.74l-21.99,2.37c1.99,3.96-3.43.3-4.21,2.94l-3.25-3.59c-.16-.17-.37-.31-.46-.51s-.09-.46-.14-.7l-2.06-10.45-.62-2.68,80.24-11.77Z"/>
          <path class="cls-16" d="M141.72,235.43l52.14-7.2c5.31-.73,9.47-.73,13.22-1.96.71-.23,2.09.63,1.63,1.72l-66.75,9.55c-.29.04-.8-1.42-.95-1.11-.1.21.06-.91.7-1Z"/>
        </g>
        <path class="cls-60" d="M56.37,297.68c-.22.1-.44.2-.66.31,1.59,2.24-.2,4.88.61,7.31-.19.13-.48.16-.5.46-5.3-.36-5.58.79-11.26.19.05-.72-.48-2.46.5-2.92l10.65-5.04c.22-.1.44-.2.66-.31Z"/>
        <path class="cls-35" d="M55.82,305.75l.55,3.3-.24,9.18c-.26.4-.66-.06-1.18-.32.29-2.88-.38-5.53.44-9.38-3.43-.95-7.1.13-10.78.19-.02-.84-.12-1.96-.06-2.77,5.68.6,5.97-.55,11.26-.19Z"/>
        <g>
          <path class="cls-49" d="M62.43,256.96c4.27,2.38,7.19,6.64,7.24,12.06l.22,23.98c.01,1.57-.07,3.17.15,4.71-3.89.33-7.78.8-11.54-.48-.27-.09-.59-.27-.8-.17-.01.13-.17-.01,0,0,0-1.4.9-2.98.47-4.32-.49-1.53-2.27-2.87-3.86-3-.16.76.14,1.35,0,2.8-.04-1.08-12.82,1.57-11.44,2.41-2.8.45-4.58,4.19-4.89,7.19-.54,5.2.07,27.2.58,31.42.11.91.04,2.35-.35,3.06-.5.92-2.82,1.45-3.56,1.08-.3-4.7-.58-9.53-.89-14.67l-.46-7.68c-1.03.39-3.19-.69-4.22.46-2.32,3.27-5.08,7.35-6.97,11,1.44,2,.71,4.7.59,6.85-.83,14.77.78,19.33.07,33.31-.55.98-3.37.59-3.72.55.03.24.17.45.25.68-.09-.23-.23-.44-.25-.68-.1-.91-1.01-1.8-1.02-2.71l-.32-42.75c.37.76,3.01.41,3.45-.66.32-.78,1.41-.97,1.63-2.71l-.18-27.87c-.02-3.86-.1-7.77-.02-11.53l.24-12.47c.05-2.85-1.14-7.64.93-10.01,3.44-1.45,8.11.13,11.53.58,8.13,1.07,15.84,1.94,23.56,3.85.85.21,1.61.43,3.13-.45-.94-1.45-.94-3.06.44-3.84Z"/>
          <path class="cls-39" d="M46.08,280c1.65-.34,4.02,1.06,5.48.36,4.78-2.28,5.54-7.2,3.38-11.06,1.17-.59,1.7,1.46,2.76,1.66-1.79,3.62.35,7.23-2.43,9.58-4.06,3.42-10.72,1.13-9.19-.54Z"/>
          <g>
            <path class="cls-69" d="M54.94,269.29c2.16,3.87,1.4,8.79-3.38,11.06-1.46.69-3.83-.7-5.48-.36-1.46-1.58-2.53-2.67-3.49-4.77l-1.01-2.21,1.05-2.41c1.14-2.62,3.25-4.17,5.85-4.37s4.6,1.32,6.47,3.06Z"/>
            <path class="cls-68" d="M48.39,270.69c1.28-.31,3.54,1.25,3.61,2.43.09,1.5-1.28,3.33-2.36,3.76-1.56.62-3.28-.53-3.52-1.67-.41-1.91-.18-3.92,2.27-4.52Z"/>
          </g>
        </g>
        <g>
          <path class="cls-1" d="M329.84,89.48c5.25,1.83,6.81,1.67,12.54,4.19,26.22,15.93,33.44,45.68,26.65,74-4.99,20.82-23.22,35.87-44.56,34.01-23.46-2.04-38.81-18.7-44.36-39.71-.74-2.81-3.22-12.43-2.48-15.38.82-3.26-.41-6.74.04-9.97,3.1-22.42,16.94-44.31,40.31-47.09,2.98-.35,6.19-1.93,9.09.51,1.17-1.07,2.17-.92,2.77-.56Z"/>
          <path class="cls-42" d="M325.86,183.3c18.13-6.84,21.97-33.01,16.39-48.95-4.05-11.58-12.89-20.93-25.15-22.9-11.66-1.88-22.57,2.81-28.34,13.57-.7,1.3-.47,3.69-2.73,2.91,2.83-9.18,9.05-16.76,17.34-20.91,1.2,1,1.55-.23,2.27-.67,24.4-4.56,42.88,19.12,43.59,41.57.59,11.91-4.12,26.42-13.69,34.78-13.95,12.18-32.9,6.15-43.2-7.39-.6-1.13,0-1.93,1.08-.88,8.63,8.4,20.96,13.2,32.43,8.87Z"/>
          <path class="cls-48" d="M365.08,154.31c-2.7,1.61-5.64,3.38-8.76,3.79,2.17-19.15-5.17-38.44-20.74-50.92-.64-.51,1.11-.39,1.19-.78.17-.91-3.63-.82-2.13-.37-.77-.23-13.31-5.18-5.68-5.86.02-1.11-.34-1.42-.09-1.64.41-.37,1.68.6,1.87-.7,9.85,4.5,19.16,10.55,25.21,19.99-2.05,1.02-1.64,1.2.73,1.15,5.51,7.78,8.78,17.38,8.32,27.07.09-1.92.35,8.59.92,7.09-.13.34-.82.73-.84,1.17Z"/>
          <path class="cls-46" d="M365.08,154.31c-.43,13.3-5.48,25.86-15.73,34.8-9,7.85-21.4,10.8-32.94,6.35,7.1-1.98,13.35-1.99,19.16-5.89,11.08-7.46,18.52-18.92,20.75-31.46,3.13-.42,6.06-2.19,8.76-3.79Z"/>
          <g>
            <path class="cls-42" d="M341.03,145.5c1.74,12.55-5.13,31.6-19.14,34.67-9.87,2.17-19.84-1.25-26.38-9.37-10.97-13.61-11.76-33.83-.49-47.53,7.07-8.6,19.51-9.4,28.83-4.49,10.33,5.44,15.58,15.13,17.18,26.72Z"/>
            <g>
              <path class="cls-64" d="M327.92,129.1c-3.34-1.18-6.62.33-7.18,4.32-.33,2.38,1.82,5.95,5.26,5.96,3.8.01,5.05-3.96,4.64-7.06,9.68,9.61,6.75,37.92-10.03,42.61-5.88,1.64-11.48.36-16.3-3.02-14.07-9.86-17.23-31.52-5.62-44.8,7.18-8.2,19.47-7.17,27.05-.74.89.76,1.94.39,2.2,1.01.24.56-.09,1.23-.02,1.71Z"/>
              <path class="cls-44" d="M327.92,129.1c.54,1.51,2.09,2.04,2.72,3.23.42,3.09-.84,7.07-4.64,7.06-3.43-.01-5.59-3.58-5.26-5.96.55-3.99,3.83-5.51,7.18-4.32Z"/>
              <path class="cls-24" d="M325.58,142.61c1.37-1.19,1.72,7.76,2.01,5.87-1.67,11.19-.67,4.81-4.71,13.72-1.91,4.2-7.47,5.51-11.91,4.14-7.22-2.24-11.84-9.57-11.89-16.84-.05-6.38.32-13.94,7.2-16.67,4.04-1.6,8.84-1.59,11.57,2.53-3.82,1.58-3.45-1.11-8.44.25-4.3,1.17-6.8,6.26-7.39,10.15-1.49,9.8,8.11,19.39,15.12,16.71,12.14-4.64,7.7-19.22,8.45-19.87Z"/>
              <path class="cls-70" d="M317.5,146.4c-2.87.37-4.48-2.01-4.84-3.56-.58-2.47.41-5.24,3.13-5.83s4.9,1.5,5.36,3.89c.38,1.99-.55,5.1-3.65,5.5Z"/>
            </g>
          </g>
        </g>
        <path class="cls-6" d="M169.46,246.53c.4-.24.87-.58,2.03-.95.48-.15,1.26.29,1.35-.68,5.29.76,8.24,5.65,7.49,11.24-.3,2.23-1.62,4.66-3.41,6.02-1.48,1.12-4.91,1.77-7.1.21-4.89-3.48-5.94-10.89-1.04-15.31.22-.19.43-.4.68-.54Z"/>
      </g>
      <g>
        <path class="cls-11" d="M391.33,150.73c4.18-2.42,8.88-4.04,11.7-8.11.17-.24.39-.43.54-.68,9.39-15.16,17.33-31.33,23.58-48.28,5.66-15.35-1.63-30.55-16.99-35.94l-85.82-30.12c-7.92-2.78-15.22-2.54-22.68.14l-5.61,2.02c-.25.09-.51.14-.74.27-2.32,1.35-4.91,1.26-7.87,2.08l-137.92,38.09-96.83,25.7c-6.88,1.83-12.03,5.87-15.19,11.51-1.4,2.5-3.02,5.01-3.04,8.59l-.27,43.49"/>
        <path class="cls-10" d="M399.78,95.87c-.03.23-.1.45-.16.67l-11.19,46.38c-.8,3.33-.96,6.48-1.41,9.47-.04.26-.04.52-.05.78l-.23,9.46-3.85,43.94c-1.31,14.96-15.59,25.66-29.85,26.78-.92-.05-1.82-.25-2.71-.46l-23.03-5.62-23.76-5.21c-3.4-.75-6.8-1.47-10.17-2.36l-.68-.18-20.15-5.35-.56-.19c-.75-.29-1.5-.6-2.18-1.04-9.8-6.31-17.76-15.99-19.18-27.65-.15-1.25-.45-2.83-.45-4.45l-.09-40.94.07-13.84c1.12-.76.81-1.8.92-2.39"/>
        <path class="cls-10" d="M272.41,214.16c-1.01-.24-2.04-.43-3.08-.55-2.78-.33-5.71-.36-8.85,0l-16.46,1.86-.7.08-28.25,3.42-80.24,11.77-40.22,5.91-4.09.6c-1.5.22-3.02.31-4.68.81,1.57.53,3.13.7,4.7.99l25.64,4.69,20.76.81.7.03"/>
        <path class="cls-7" d="M34.18,159.47l.65-.29c3.81-2.16,7.69-2.83,12.52-3.92l198.83-45.05c13.66-3.09,32.33-34.61,36.5-45.8l7.2-19.34,6.19-11.36"/>
        <path class="cls-11" d="M352.36,233.39l-1.39.25c-8.69,1.56-17.36,3.42-26.16,4.32-12.8,1.31-25.56,4.37-38.75,4.77-5.91.18-11.38-1.66-17.02.73-4.8,2.03-11.46.89-16.21,4.05-9.91,8.52-17.76,18.93-26.99,27.81"/>
        <path class="cls-11" d="M399.78,95.87v-.69s0-1.39,0-1.39c0-8.58.55-17.22-.4-25.71l-64.89-22.82c-12.2-4.29-25.72-2.15-33.12,9.2-2.18,3.35-5.46,6.01-7.05,9.71l-5.77,13.41c-6.69,15.54-20.71,33.94-37.46,41.54-3.92,1.78-7.64,2.54-12.42,3.6l-165.65,36.89-28.17,6.66-.68.16"/>
        <path class="cls-11" d="M44.18,166.44c-3.85,1.65-8.1-4.23-10-6.97"/>
        <polyline class="cls-11" points="137.65 244.55 138.12 245.06 141.36 248.65 164.08 273.75 165.47 275.29 165.94 275.8"/>
        <path class="cls-12" d="M305.35,57.01l.6.32c1.82,1.14,3.65,2.83,6.11,3.65l58.14,19.38c3.3,1.1,6.4,2.26,9.35,3.94l19.64,11.23.6.35"/>
        <path class="cls-9" d="M214.2,244.53c4.14,1.16,7.94,3.38,12.32,2.71.28-.04.57,0,.85-.04l19.96-3.13"/>
        <line class="cls-10" x1="165.94" y1="275.8" x2="164.48" y2="284.63"/>
        <path class="cls-7" d="M226.35,128.39l.1,15.83c.06,9.42-.25,18.86.48,28.24l1.02,13.02.21,2.74.91,11.65.05.69"/>
        <path class="cls-11" d="M66.48,164.29l.23,10.37.05,2.08.42,21.69c.06,3.1.24,6.12.68,9.21.03.22.01.45,0,.68s-.05.46,0,.68c1.22,5.46,3.64,11.28,8.75,13.73s9.61,5.38,14.32,8.83c1.68,1.23,2.42,3.18,3.72,4.3.81.7,1.52,1.27,2.54,1.91l-6.6.44c-1.01.07-2.08,0-3.08-.36l-.68-.14c-15.16-3.13-32.58-9.14-36.99-26.01-1.39-5.32-1.07-10.75-1.11-16.58l-.11-16.61c-.07-9.99-.23-4.01-4.03-11.48-.11-.21-.26-.4-.4-.6"/>
        <line class="cls-7" x1="69.22" y1="198.39" x2="225" y2="172.31"/>
        <polyline class="cls-7" points="229.14 200.56 228.46 200.66 80.73 221.38"/>
        <line class="cls-7" x1="229.14" y1="200.56" x2="241.56" y2="212.66"/>
        <polyline class="cls-11" points="216.88 224.58 217.03 225.55 217.18 226.52"/>
        <path class="cls-10" d="M135.46,233.4l2.06,10.45c.05.24.04.49.14.7"/>
        <path class="cls-10" d="M217.18,226.52l-2.15,4.46c-1.99,4.12-3.88,8.28-6.33,12.14l-.84,1.33c-2.13,3.35-4.55,6.45-7.28,9.31-3.9,4.08-6.73,9.1-10.25,13.51l-.54.68c-3.02,3.77-6.85,5.54-11.82,5.65-3.95.08-7.67,1.48-11.21,2.04l-.81.18"/>
        <path class="cls-11" d="M217.18,226.52l.7.14c8.2,1.66,16.41,2.25,25.17,2.1l20.31-.35,3.4,8.37"/>
        <path class="cls-7" d="M327.3,230.68c-.23,0-.45-.01-.68,0-2.71.15-5.37-.32-8.31.25,1.66,2.19,3.57,3.53,5.04,5.28"/>
        <path class="cls-11" d="M268.38,232.33c6.68-1.42,13.5-.89,20.31-.97"/>
        <path class="cls-11" d="M225.31,253.22l-3.14,7.95c-1.99,5.02-.71,11.7-.19,17.45l.38,4.22"/>
        <path class="cls-10" d="M22.64,249.95c-2.5,2.67-5.08,4.81-4.92,8.5,0,.04-.15,14.15.05,15.73.03.23,0,.46,0,.69l.05,6.91c.03,4.24-.18,8.47-.17,12.69v4.86c.01.23.01.46.02.69l.05,22.04.32,42.75c0,.91.92,1.8,1.02,2.71.03.24.17.45.25.68l2.29,6.09,2.24,5.96"/>
        <path class="cls-10" d="M69.88,293l-.22-23.98c-.05-5.43-2.97-9.68-7.24-12.06-6.43-3.59-27.41-5.75-38.68-9.24-4.57-1.41-8.88-.69-12.8,1.92-2.63,1.75-4.4,3.82-5.69,6.77-1.5,3.42-1,7.14-1.1,11.21-.07,2.71-.88,5.16-.62,7.61l.54,5.21c.03.25.06.49.08.74.21,2.22.64,4.41.97,6.61.39,2.63.13,5.29.11,7.94l-.04,6.42-.97,56.7-.04,2.05-.13,7.51"/>
        <path class="cls-11" d="M159.94,290.12l-.68.06-8.87.75-80.36,6.79c-3.89.33-7.78.8-11.54-.48l-.8-.17"/>
        <path class="cls-11" d="M164.48,284.63l13.14.27,44.35,1.01c.54.01,1.08.21,1.6.32,3.75.76,7.38,4.13,7.4,8.52l.14,28.65v.79"/>
        <polyline class="cls-12" points="164.48 284.63 164.02 285.18 160.4 289.57 159.94 290.12"/>
        <path class="cls-10" d="M159.94,290.12c-.07.2.02.45.03.69l.74,19.39.37,9.7c0,.18.12.35.19.53.55.8,1.59.71,2.42.54s1.69-.11,2.52-.2c3.8-.42,7.54-1.37,11.38-1.35l31.16.14c4.67.02,9.49,1.33,13.97,2.48l7.65,1.96c.25.06.49.12.74.19"/>
        <path class="cls-10" d="M231.1,324.18c-.16.19-.31.39-.49.55-1.89,1.61-3.02,4.27-5.46,5.63-1.44.8-4.16.16-5.58-.26-6.97-2.06-14.01-2.91-21.26-2.29-1.6.14-3.24.06-4.85.09l-8.31.15-15.47.38c.82,1.72,1.86,3.13,3.02,4.26,5.25,5.09,3.26,9.78,20.12,9.67,15.38-.1,18.96,2.2,25.9-9.7"/>
        <path class="cls-7" d="M57.69,297.06c0-1.4.9-2.98.47-4.32-.49-1.53-2.27-2.87-3.86-3-9.33-.79-19.66,1.25-20.75,13.16-.38,4.21-.49,8.47-.25,12.45l.46,7.68c.31,5.14.59,9.97.89,14.67.88,13.63,16.06,14.97,27.4,17.21,3.51.69,6.62.66,9.18-1.57.19-.17.44-.27.68-.4"/>
        <path class="cls-11" d="M57.69,297.06l-1.32.61c-.22.1-.44.2-.66.31l-10.65,5.04c-.98.46-.45,2.2-.5,2.92-.06.82.05,1.93.06,2.77l.52,23.48v4.21c.04,6.44,8.36,9.56,14.29,9.86l14.49.73c.93.05,2.06.23,2.99.09l86.53-13.11,8.75-1.37,2.02-.32"/>
        <line class="cls-10" x1="71.91" y1="352.95" x2="72.08" y2="352.19"/>
        <path class="cls-11" d="M62.36,386.85c3.86-5.58,9.39-9.77,9.45-17.62l.11-16.28"/>
        <path class="cls-7" d="M47.54,335.86l8.12-1.08,105-14c.92-.12,2.15-.51,2.57.59.36,2.46-.01,4.95.14,7.42"/>
        <polyline class="cls-10" points="15.63 365.69 4.75 368.26 4.06 368.42"/>
        <path class="cls-11" d="M4.06,368.42c2.2,6.96,7.19,13.14,15.02,14.85,9.82,2.14,19.69,3.66,29.69,5,4.14.56,8.35-.79,12.15-1.25l1.43-.17"/>
        <path class="cls-10" d="M24.59,374.34c7.49,2.97,15.65,3.56,23.7,5.79,4.67,1.29,8.54,4.39,12.78,6.08.22.09.43.21.64.32l.64.32"/>
        <polyline class="cls-8" points="154.56 299.1 154.56 300.45 154.56 310.34 154.56 316.03"/>
      </g>
    </g>
  </g>
</svg>